<svg width="30" height="30" viewBox="0 0 30 30" fill="none" xmlns="http://www.w3.org/2000/svg">
<g id="Group 707">
<g id="Group 17">
<g id="Group 16">
<rect id="Rectangle 63" x="9" width="1" height="1" fill="#303189"/>
</g>
</g>
<g id="Group 19">
<g id="Group 18">
<rect id="Rectangle 64" x="10" width="1" height="1" fill="#303189"/>
</g>
</g>
<g id="Group 21">
<g id="Group 20">
<rect id="Rectangle 65" x="13" width="1" height="1" fill="#303189"/>
</g>
</g>
<g id="Group 23">
<g id="Group 22">
<rect id="Rectangle 66" x="14" width="1" height="1" fill="#303189"/>
</g>
</g>
<g id="Group 25">
<g id="Group 24">
<rect id="Rectangle 67" x="15" width="1" height="1" fill="#303189"/>
</g>
</g>
<g id="Group 27">
<g id="Group 26">
<rect id="Rectangle 68" x="18" width="1" height="1" fill="#303189"/>
</g>
</g>
<g id="Group 29">
<g id="Group 28">
<rect id="Rectangle 69" x="19" width="1" height="1" fill="#303189"/>
</g>
</g>
<g id="Group 31">
<g id="Group 30">
<rect id="Rectangle 70" x="20" width="1" height="1" fill="#303189"/>
</g>
</g>
<g id="Group 33">
<g id="Group 32">
<rect id="Rectangle 71" x="9" y="1" width="1" height="1" fill="#303189"/>
</g>
</g>
<g id="Group 35">
<g id="Group 34">
<rect id="Rectangle 72" x="10" y="1" width="1" height="1" fill="#303189"/>
</g>
</g>
<g id="Group 37">
<g id="Group 36">
<rect id="Rectangle 73" x="13" y="1" width="1" height="1" fill="#303189"/>
</g>
</g>
<g id="Group 39">
<g id="Group 38">
<rect id="Rectangle 74" x="14" y="1" width="1" height="1" fill="#303189"/>
</g>
</g>
<g id="Group 41">
<g id="Group 40">
<rect id="Rectangle 75" x="15" y="1" width="1" height="1" fill="#303189"/>
</g>
</g>
<g id="Group 43">
<g id="Group 42">
<rect id="Rectangle 76" x="16" y="1" width="1" height="1" fill="#303189"/>
</g>
</g>
<g id="Group 45">
<g id="Group 44">
<rect id="Rectangle 77" x="18" y="1" width="1" height="1" fill="#303189"/>
</g>
</g>
<g id="Group 47">
<g id="Group 46">
<rect id="Rectangle 78" x="20" y="1" width="1" height="1" fill="#303189"/>
</g>
</g>
<g id="Group 49">
<g id="Group 48">
<rect id="Rectangle 79" x="8" y="2" width="1" height="1" fill="#303189"/>
</g>
</g>
<g id="Group 51">
<g id="Group 50">
<rect id="Rectangle 80" x="9" y="2" width="1" height="1" fill="#303189"/>
</g>
</g>
<g id="Group 53">
<g id="Group 52">
<rect id="Rectangle 81" x="10" y="2" width="1" height="1" fill="#303189"/>
</g>
</g>
<g id="Group 55">
<g id="Group 54">
<rect id="Rectangle 82" x="13" y="2" width="1" height="1" fill="#303189"/>
</g>
</g>
<g id="Group 57">
<g id="Group 56">
<rect id="Rectangle 83" x="15" y="2" width="1" height="1" fill="#303189"/>
</g>
</g>
<g id="Group 59">
<g id="Group 58">
<rect id="Rectangle 84" x="20" y="2" width="1" height="1" fill="#303189"/>
</g>
</g>
<g id="Group 61">
<g id="Group 60">
<rect id="Rectangle 85" x="8" y="3" width="1" height="1" fill="#303189"/>
</g>
</g>
<g id="Group 63">
<g id="Group 62">
<rect id="Rectangle 86" x="10" y="3" width="1" height="1" fill="#303189"/>
</g>
</g>
<g id="Group 65">
<g id="Group 64">
<rect id="Rectangle 87" x="12" y="3" width="1" height="1" fill="#303189"/>
</g>
</g>
<g id="Group 67">
<g id="Group 66">
<rect id="Rectangle 88" x="14" y="3" width="1" height="1" fill="#303189"/>
</g>
</g>
<g id="Group 69">
<g id="Group 68">
<rect id="Rectangle 89" x="15" y="3" width="1" height="1" fill="#303189"/>
</g>
</g>
<g id="Group 71">
<g id="Group 70">
<rect id="Rectangle 90" x="17" y="3" width="1" height="1" fill="#303189"/>
</g>
</g>
<g id="Group 73">
<g id="Group 72">
<rect id="Rectangle 91" x="19" y="3" width="1" height="1" fill="#303189"/>
</g>
</g>
<g id="Group 75">
<g id="Group 74">
<rect id="Rectangle 92" x="8" y="4" width="1" height="1" fill="#303189"/>
</g>
</g>
<g id="Group 77">
<g id="Group 76">
<rect id="Rectangle 93" x="10" y="4" width="1" height="1" fill="#303189"/>
</g>
</g>
<g id="Group 79">
<g id="Group 78">
<rect id="Rectangle 94" x="12" y="4" width="1" height="1" fill="#303189"/>
</g>
</g>
<g id="Group 81">
<g id="Group 80">
<rect id="Rectangle 95" x="15" y="4" width="1" height="1" fill="#303189"/>
</g>
</g>
<g id="Group 83">
<g id="Group 82">
<rect id="Rectangle 96" x="16" y="4" width="1" height="1" fill="#303189"/>
</g>
</g>
<g id="Group 85">
<g id="Group 84">
<rect id="Rectangle 97" x="17" y="4" width="1" height="1" fill="#303189"/>
</g>
</g>
<g id="Group 87">
<g id="Group 86">
<rect id="Rectangle 98" x="18" y="4" width="1" height="1" fill="#303189"/>
</g>
</g>
<g id="Group 89">
<g id="Group 88">
<rect id="Rectangle 99" x="19" y="4" width="1" height="1" fill="#303189"/>
</g>
</g>
<g id="Group 91">
<g id="Group 90">
<rect id="Rectangle 100" x="20" y="4" width="1" height="1" fill="#303189"/>
</g>
</g>
<g id="Group 93">
<g id="Group 92">
<rect id="Rectangle 101" x="8" y="5" width="1" height="1" fill="#303189"/>
</g>
</g>
<g id="Group 95">
<g id="Group 94">
<rect id="Rectangle 102" x="9" y="5" width="1" height="1" fill="#303189"/>
</g>
</g>
<g id="Group 97">
<g id="Group 96">
<rect id="Rectangle 103" x="10" y="5" width="1" height="1" fill="#303189"/>
</g>
</g>
<g id="Group 99">
<g id="Group 98">
<rect id="Rectangle 104" x="12" y="5" width="1" height="1" fill="#303189"/>
</g>
</g>
<g id="Group 101">
<g id="Group 100">
<rect id="Rectangle 105" x="20" y="5" width="1" height="1" fill="#303189"/>
</g>
</g>
<g id="Group 103">
<g id="Group 102">
<rect id="Rectangle 106" x="8" y="6" width="1" height="1" fill="#303189"/>
</g>
</g>
<g id="Group 105">
<g id="Group 104">
<rect id="Rectangle 107" x="10" y="6" width="1" height="1" fill="#303189"/>
</g>
</g>
<g id="Group 107">
<g id="Group 106">
<rect id="Rectangle 108" x="12" y="6" width="1" height="1" fill="#303189"/>
</g>
</g>
<g id="Group 109">
<g id="Group 108">
<rect id="Rectangle 109" x="14" y="6" width="1" height="1" fill="#303189"/>
</g>
</g>
<g id="Group 111">
<g id="Group 110">
<rect id="Rectangle 110" x="16" y="6" width="1" height="1" fill="#303189"/>
</g>
</g>
<g id="Group 113">
<g id="Group 112">
<rect id="Rectangle 111" x="18" y="6" width="1" height="1" fill="#303189"/>
</g>
</g>
<g id="Group 115">
<g id="Group 114">
<rect id="Rectangle 112" x="20" y="6" width="1" height="1" fill="#303189"/>
</g>
</g>
<g id="Group 117">
<g id="Group 116">
<rect id="Rectangle 113" x="8" y="7" width="1" height="1" fill="#303189"/>
</g>
</g>
<g id="Group 119">
<g id="Group 118">
<rect id="Rectangle 114" x="9" y="7" width="1" height="1" fill="#303189"/>
</g>
</g>
<g id="Group 121">
<g id="Group 120">
<rect id="Rectangle 115" x="11" y="7" width="1" height="1" fill="#303189"/>
</g>
</g>
<g id="Group 123">
<g id="Group 122">
<rect id="Rectangle 116" x="12" y="7" width="1" height="1" fill="#303189"/>
</g>
</g>
<g id="Group 125">
<g id="Group 124">
<rect id="Rectangle 117" x="14" y="7" width="1" height="1" fill="#303189"/>
</g>
</g>
<g id="Group 127">
<g id="Group 126">
<rect id="Rectangle 118" x="16" y="7" width="1" height="1" fill="#303189"/>
</g>
</g>
<g id="Group 129">
<g id="Group 128">
<rect id="Rectangle 119" x="18" y="7" width="1" height="1" fill="#303189"/>
</g>
</g>
<g id="Group 131">
<g id="Group 130">
<rect id="Rectangle 120" x="20" y="7" width="1" height="1" fill="#303189"/>
</g>
</g>
<g id="Group 133">
<g id="Group 132">
<rect id="Rectangle 121" y="8" width="1" height="1" fill="#303189"/>
</g>
</g>
<g id="Group 135">
<g id="Group 134">
<rect id="Rectangle 122" x="2.00003" y="8" width="1" height="1" fill="#303189"/>
</g>
</g>
<g id="Group 137">
<g id="Group 136">
<rect id="Rectangle 123" x="3" y="8" width="1" height="1" fill="#303189"/>
</g>
</g>
<g id="Group 139">
<g id="Group 138">
<rect id="Rectangle 124" x="4.00003" y="8" width="1" height="1" fill="#303189"/>
</g>
</g>
<g id="Group 141">
<g id="Group 140">
<rect id="Rectangle 125" x="5.00003" y="8" width="1" height="1" fill="#303189"/>
</g>
</g>
<g id="Group 143">
<g id="Group 142">
<rect id="Rectangle 126" x="6.00003" y="8" width="1" height="1" fill="#303189"/>
</g>
</g>
<g id="Group 145">
<g id="Group 144">
<rect id="Rectangle 127" x="10" y="8" width="1" height="1" fill="#303189"/>
</g>
</g>
<g id="Group 147">
<g id="Group 146">
<rect id="Rectangle 128" x="16" y="8" width="1" height="1" fill="#303189"/>
</g>
</g>
<g id="Group 149">
<g id="Group 148">
<rect id="Rectangle 129" x="17" y="8" width="1" height="1" fill="#303189"/>
</g>
</g>
<g id="Group 151">
<g id="Group 150">
<rect id="Rectangle 130" x="22" y="8" width="1" height="1" fill="#303189"/>
</g>
</g>
<g id="Group 153">
<g id="Group 152">
<rect id="Rectangle 131" x="23" y="8" width="1" height="1" fill="#303189"/>
</g>
</g>
<g id="Group 155">
<g id="Group 154">
<rect id="Rectangle 132" x="24" y="8" width="1" height="1" fill="#303189"/>
</g>
</g>
<g id="Group 157">
<g id="Group 156">
<rect id="Rectangle 133" x="25" y="8" width="1" height="1" fill="#303189"/>
</g>
</g>
<g id="Group 159">
<g id="Group 158">
<rect id="Rectangle 134" x="26" y="8" width="1" height="1" fill="#303189"/>
</g>
</g>
<g id="Group 161">
<g id="Group 160">
<rect id="Rectangle 135" y="9" width="1" height="1" fill="#303189"/>
</g>
</g>
<g id="Group 163">
<g id="Group 162">
<rect id="Rectangle 136" x="2.00003" y="9" width="1" height="1" fill="#303189"/>
</g>
</g>
<g id="Group 165">
<g id="Group 164">
<rect id="Rectangle 137" x="3" y="9" width="1" height="1" fill="#303189"/>
</g>
</g>
<g id="Group 167">
<g id="Group 166">
<rect id="Rectangle 138" x="5.00003" y="9" width="1" height="1" fill="#303189"/>
</g>
</g>
<g id="Group 169">
<g id="Group 168">
<rect id="Rectangle 139" x="13" y="9" width="1" height="1" fill="#303189"/>
</g>
</g>
<g id="Group 171">
<g id="Group 170">
<rect id="Rectangle 140" x="14" y="9" width="1" height="1" fill="#303189"/>
</g>
</g>
<g id="Group 173">
<g id="Group 172">
<rect id="Rectangle 141" x="15" y="9" width="1" height="1" fill="#303189"/>
</g>
</g>
<g id="Group 175">
<g id="Group 174">
<rect id="Rectangle 142" x="17" y="9" width="1" height="1" fill="#303189"/>
</g>
</g>
<g id="Group 177">
<g id="Group 176">
<rect id="Rectangle 143" x="18" y="9" width="1" height="1" fill="#303189"/>
</g>
</g>
<g id="Group 179">
<g id="Group 178">
<rect id="Rectangle 144" x="19" y="9" width="1" height="1" fill="#303189"/>
</g>
</g>
<g id="Group 181">
<g id="Group 180">
<rect id="Rectangle 145" x="20" y="9" width="1" height="1" fill="#303189"/>
</g>
</g>
<g id="Group 183">
<g id="Group 182">
<rect id="Rectangle 146" x="21" y="9" width="1" height="1" fill="#303189"/>
</g>
</g>
<g id="Group 185">
<g id="Group 184">
<rect id="Rectangle 147" x="22" y="9" width="1" height="1" fill="#303189"/>
</g>
</g>
<g id="Group 187">
<g id="Group 186">
<rect id="Rectangle 148" x="23" y="9" width="1" height="1" fill="#303189"/>
</g>
</g>
<g id="Group 189">
<g id="Group 188">
<rect id="Rectangle 149" x="24" y="9" width="1" height="1" fill="#303189"/>
</g>
</g>
<g id="Group 191">
<g id="Group 190">
<rect id="Rectangle 150" x="28" y="9" width="1" height="1" fill="#303189"/>
</g>
</g>
<g id="Group 193">
<g id="Group 192">
<rect id="Rectangle 151" y="10" width="1" height="1" fill="#303189"/>
</g>
</g>
<g id="Group 195">
<g id="Group 194">
<rect id="Rectangle 152" x="2.00003" y="10" width="1" height="1" fill="#303189"/>
</g>
</g>
<g id="Group 197">
<g id="Group 196">
<rect id="Rectangle 153" x="4.00003" y="10" width="1" height="1" fill="#303189"/>
</g>
</g>
<g id="Group 199">
<g id="Group 198">
<rect id="Rectangle 154" x="5.00003" y="10" width="1" height="1" fill="#303189"/>
</g>
</g>
<g id="Group 201">
<g id="Group 200">
<rect id="Rectangle 155" x="6.00003" y="10" width="1" height="1" fill="#303189"/>
</g>
</g>
<g id="Group 203">
<g id="Group 202">
<rect id="Rectangle 156" x="8" y="10" width="1" height="1" fill="#303189"/>
</g>
</g>
<g id="Group 205">
<g id="Group 204">
<rect id="Rectangle 157" x="10" y="10" width="1" height="1" fill="#303189"/>
</g>
</g>
<g id="Group 207">
<g id="Group 206">
<rect id="Rectangle 158" x="11" y="10" width="1" height="1" fill="#303189"/>
</g>
</g>
<g id="Group 209">
<g id="Group 208">
<rect id="Rectangle 159" x="13" y="10" width="1" height="1" fill="#303189"/>
</g>
</g>
<g id="Group 211">
<g id="Group 210">
<rect id="Rectangle 160" x="14" y="10" width="1" height="1" fill="#303189"/>
</g>
</g>
<g id="Group 213">
<g id="Group 212">
<rect id="Rectangle 161" x="15" y="10" width="1" height="1" fill="#303189"/>
</g>
</g>
<g id="Group 215">
<g id="Group 214">
<rect id="Rectangle 162" x="16" y="10" width="1" height="1" fill="#303189"/>
</g>
</g>
<g id="Group 217">
<g id="Group 216">
<rect id="Rectangle 163" x="20" y="10" width="1" height="1" fill="#303189"/>
</g>
</g>
<g id="Group 219">
<g id="Group 218">
<rect id="Rectangle 164" x="21" y="10" width="1" height="1" fill="#303189"/>
</g>
</g>
<g id="Group 221">
<g id="Group 220">
<rect id="Rectangle 165" x="1.00003" y="11" width="1" height="1" fill="#303189"/>
</g>
</g>
<g id="Group 223">
<g id="Group 222">
<rect id="Rectangle 166" x="2.00003" y="11" width="1" height="1" fill="#303189"/>
</g>
</g>
<g id="Group 225">
<g id="Group 224">
<rect id="Rectangle 167" x="3" y="11" width="1" height="1" fill="#303189"/>
</g>
</g>
<g id="Group 227">
<g id="Group 226">
<rect id="Rectangle 168" x="5.00003" y="11" width="1" height="1" fill="#303189"/>
</g>
</g>
<g id="Group 229">
<g id="Group 228">
<rect id="Rectangle 169" x="7" y="11" width="1" height="1" fill="#303189"/>
</g>
</g>
<g id="Group 231">
<g id="Group 230">
<rect id="Rectangle 170" x="8" y="11" width="1" height="1" fill="#303189"/>
</g>
</g>
<g id="Group 233">
<g id="Group 232">
<rect id="Rectangle 171" x="11" y="11" width="1" height="1" fill="#303189"/>
</g>
</g>
<g id="Group 235">
<g id="Group 234">
<rect id="Rectangle 172" x="13" y="11" width="1" height="1" fill="#303189"/>
</g>
</g>
<g id="Group 237">
<g id="Group 236">
<rect id="Rectangle 173" x="15" y="11" width="1" height="1" fill="#303189"/>
</g>
</g>
<g id="Group 239">
<g id="Group 238">
<rect id="Rectangle 174" x="18" y="11" width="1" height="1" fill="#303189"/>
</g>
</g>
<g id="Group 241">
<g id="Group 240">
<rect id="Rectangle 175" x="19" y="11" width="1" height="1" fill="#303189"/>
</g>
</g>
<g id="Group 243">
<g id="Group 242">
<rect id="Rectangle 176" x="23" y="11" width="1" height="1" fill="#303189"/>
</g>
</g>
<g id="Group 245">
<g id="Group 244">
<rect id="Rectangle 177" x="25" y="11" width="1" height="1" fill="#303189"/>
</g>
</g>
<g id="Group 247">
<g id="Group 246">
<rect id="Rectangle 178" x="27" y="11" width="1" height="1" fill="#303189"/>
</g>
</g>
<g id="Group 249">
<g id="Group 248">
<rect id="Rectangle 179" x="1.00003" y="12" width="1" height="1" fill="#303189"/>
</g>
</g>
<g id="Group 251">
<g id="Group 250">
<rect id="Rectangle 180" x="2.00003" y="12" width="1" height="1" fill="#303189"/>
</g>
</g>
<g id="Group 253">
<g id="Group 252">
<rect id="Rectangle 181" x="3" y="12" width="1" height="1" fill="#303189"/>
</g>
</g>
<g id="Group 255">
<g id="Group 254">
<rect id="Rectangle 182" x="6.00003" y="12" width="1" height="1" fill="#303189"/>
</g>
</g>
<g id="Group 257">
<g id="Group 256">
<rect id="Rectangle 183" x="9" y="12" width="1" height="1" fill="#303189"/>
</g>
</g>
<g id="Group 259">
<g id="Group 258">
<rect id="Rectangle 184" x="12" y="12" width="1" height="1" fill="#303189"/>
</g>
</g>
<g id="Group 261">
<g id="Group 260">
<rect id="Rectangle 185" x="14" y="12" width="1" height="1" fill="#303189"/>
</g>
</g>
<g id="Group 263">
<g id="Group 262">
<rect id="Rectangle 186" x="15" y="12" width="1" height="1" fill="#303189"/>
</g>
</g>
<g id="Group 265">
<g id="Group 264">
<rect id="Rectangle 187" x="17" y="12" width="1" height="1" fill="#303189"/>
</g>
</g>
<g id="Group 267">
<g id="Group 266">
<rect id="Rectangle 188" x="18" y="12" width="1" height="1" fill="#303189"/>
</g>
</g>
<g id="Group 269">
<g id="Group 268">
<rect id="Rectangle 189" x="25" y="12" width="1" height="1" fill="#303189"/>
</g>
</g>
<g id="Group 271">
<g id="Group 270">
<rect id="Rectangle 190" x="26" y="12" width="1" height="1" fill="#303189"/>
</g>
</g>
<g id="Group 273">
<g id="Group 272">
<rect id="Rectangle 191" y="13" width="1" height="1" fill="#303189"/>
</g>
</g>
<g id="Group 275">
<g id="Group 274">
<rect id="Rectangle 192" x="3" y="13" width="1" height="1" fill="#303189"/>
</g>
</g>
<g id="Group 277">
<g id="Group 276">
<rect id="Rectangle 193" x="4.00003" y="13" width="1" height="1" fill="#303189"/>
</g>
</g>
<g id="Group 279">
<g id="Group 278">
<rect id="Rectangle 194" x="5.00003" y="13" width="1" height="1" fill="#303189"/>
</g>
</g>
<g id="Group 281">
<g id="Group 280">
<rect id="Rectangle 195" x="7" y="13" width="1" height="1" fill="#303189"/>
</g>
</g>
<g id="Group 283">
<g id="Group 282">
<rect id="Rectangle 196" x="8" y="13" width="1" height="1" fill="#303189"/>
</g>
</g>
<g id="Group 285">
<g id="Group 284">
<rect id="Rectangle 197" x="10" y="13" width="1" height="1" fill="#303189"/>
</g>
</g>
<g id="Group 287">
<g id="Group 286">
<rect id="Rectangle 198" x="15" y="13" width="1" height="1" fill="#303189"/>
</g>
</g>
<g id="Group 289">
<g id="Group 288">
<rect id="Rectangle 199" x="16" y="13" width="1" height="1" fill="#303189"/>
</g>
</g>
<g id="Group 291">
<g id="Group 290">
<rect id="Rectangle 200" x="17" y="13" width="1" height="1" fill="#303189"/>
</g>
</g>
<g id="Group 293">
<g id="Group 292">
<rect id="Rectangle 201" x="18" y="13" width="1" height="1" fill="#303189"/>
</g>
</g>
<g id="Group 295">
<g id="Group 294">
<rect id="Rectangle 202" x="19" y="13" width="1" height="1" fill="#303189"/>
</g>
</g>
<g id="Group 297">
<g id="Group 296">
<rect id="Rectangle 203" x="20" y="13" width="1" height="1" fill="#303189"/>
</g>
</g>
<g id="Group 299">
<g id="Group 298">
<rect id="Rectangle 204" x="21" y="13" width="1" height="1" fill="#303189"/>
</g>
</g>
<g id="Group 301">
<g id="Group 300">
<rect id="Rectangle 205" x="22" y="13" width="1" height="1" fill="#303189"/>
</g>
</g>
<g id="Group 303">
<g id="Group 302">
<rect id="Rectangle 206" x="24" y="13" width="1" height="1" fill="#303189"/>
</g>
</g>
<g id="Group 305">
<g id="Group 304">
<rect id="Rectangle 207" x="28" y="13" width="1" height="1" fill="#303189"/>
</g>
</g>
<g id="Group 307">
<g id="Group 306">
<rect id="Rectangle 208" y="14" width="1" height="1" fill="#303189"/>
</g>
</g>
<g id="Group 309">
<g id="Group 308">
<rect id="Rectangle 209" x="3" y="14" width="1" height="1" fill="#303189"/>
</g>
</g>
<g id="Group 311">
<g id="Group 310">
<rect id="Rectangle 210" x="4.00003" y="14" width="1" height="1" fill="#303189"/>
</g>
</g>
<g id="Group 313">
<g id="Group 312">
<rect id="Rectangle 211" x="6.00003" y="14" width="1" height="1" fill="#303189"/>
</g>
</g>
<g id="Group 315">
<g id="Group 314">
<rect id="Rectangle 212" x="8" y="14" width="1" height="1" fill="#303189"/>
</g>
</g>
<g id="Group 317">
<g id="Group 316">
<rect id="Rectangle 213" x="9" y="14" width="1" height="1" fill="#303189"/>
</g>
</g>
<g id="Group 319">
<g id="Group 318">
<rect id="Rectangle 214" x="10" y="14" width="1" height="1" fill="#303189"/>
</g>
</g>
<g id="Group 321">
<g id="Group 320">
<rect id="Rectangle 215" x="11" y="14" width="1" height="1" fill="#303189"/>
</g>
</g>
<g id="Group 323">
<g id="Group 322">
<rect id="Rectangle 216" x="17" y="14" width="1" height="1" fill="#303189"/>
</g>
</g>
<g id="Group 325">
<g id="Group 324">
<rect id="Rectangle 217" x="20" y="14" width="1" height="1" fill="#303189"/>
</g>
</g>
<g id="Group 327">
<g id="Group 326">
<rect id="Rectangle 218" x="22" y="14" width="1" height="1" fill="#303189"/>
</g>
</g>
<g id="Group 329">
<g id="Group 328">
<rect id="Rectangle 219" x="23" y="14" width="1" height="1" fill="#303189"/>
</g>
</g>
<g id="Group 331">
<g id="Group 330">
<rect id="Rectangle 220" x="25" y="14" width="1" height="1" fill="#303189"/>
</g>
</g>
<g id="Group 333">
<g id="Group 332">
<rect id="Rectangle 221" x="26" y="14" width="1" height="1" fill="#303189"/>
</g>
</g>
<g id="Group 335">
<g id="Group 334">
<rect id="Rectangle 222" y="15" width="1" height="1" fill="#303189"/>
</g>
</g>
<g id="Group 337">
<g id="Group 336">
<rect id="Rectangle 223" x="2.00003" y="15" width="1" height="1" fill="#303189"/>
</g>
</g>
<g id="Group 339">
<g id="Group 338">
<rect id="Rectangle 224" x="4.00003" y="15" width="1" height="1" fill="#303189"/>
</g>
</g>
<g id="Group 341">
<g id="Group 340">
<rect id="Rectangle 225" x="7" y="15" width="1" height="1" fill="#303189"/>
</g>
</g>
<g id="Group 343">
<g id="Group 342">
<rect id="Rectangle 226" x="10" y="15" width="1" height="1" fill="#303189"/>
</g>
</g>
<g id="Group 345">
<g id="Group 344">
<rect id="Rectangle 227" x="11" y="15" width="1" height="1" fill="#303189"/>
</g>
</g>
<g id="Group 347">
<g id="Group 346">
<rect id="Rectangle 228" x="14" y="15" width="1" height="1" fill="#303189"/>
</g>
</g>
<g id="Group 349">
<g id="Group 348">
<rect id="Rectangle 229" x="16" y="15" width="1" height="1" fill="#303189"/>
</g>
</g>
<g id="Group 351">
<g id="Group 350">
<rect id="Rectangle 230" x="18" y="15" width="1" height="1" fill="#303189"/>
</g>
</g>
<g id="Group 353">
<g id="Group 352">
<rect id="Rectangle 231" x="21" y="15" width="1" height="1" fill="#303189"/>
</g>
</g>
<g id="Group 355">
<g id="Group 354">
<rect id="Rectangle 232" x="22" y="15" width="1" height="1" fill="#303189"/>
</g>
</g>
<g id="Group 357">
<g id="Group 356">
<rect id="Rectangle 233" x="23" y="15" width="1" height="1" fill="#303189"/>
</g>
</g>
<g id="Group 359">
<g id="Group 358">
<rect id="Rectangle 234" x="24" y="15" width="1" height="1" fill="#303189"/>
</g>
</g>
<g id="Group 361">
<g id="Group 360">
<rect id="Rectangle 235" x="27" y="15" width="1" height="1" fill="#303189"/>
</g>
</g>
<g id="Group 363">
<g id="Group 362">
<rect id="Rectangle 236" x="1.00003" y="16" width="1" height="1" fill="#303189"/>
</g>
</g>
<g id="Group 365">
<g id="Group 364">
<rect id="Rectangle 237" x="6.00003" y="16" width="1" height="1" fill="#303189"/>
</g>
</g>
<g id="Group 367">
<g id="Group 366">
<rect id="Rectangle 238" x="9" y="16" width="1" height="1" fill="#303189"/>
</g>
</g>
<g id="Group 369">
<g id="Group 368">
<rect id="Rectangle 239" x="10" y="16" width="1" height="1" fill="#303189"/>
</g>
</g>
<g id="Group 371">
<g id="Group 370">
<rect id="Rectangle 240" x="11" y="16" width="1" height="1" fill="#303189"/>
</g>
</g>
<g id="Group 373">
<g id="Group 372">
<rect id="Rectangle 241" x="12" y="16" width="1" height="1" fill="#303189"/>
</g>
</g>
<g id="Group 375">
<g id="Group 374">
<rect id="Rectangle 242" x="16" y="16" width="1" height="1" fill="#303189"/>
</g>
</g>
<g id="Group 377">
<g id="Group 376">
<rect id="Rectangle 243" x="17" y="16" width="1" height="1" fill="#303189"/>
</g>
</g>
<g id="Group 379">
<g id="Group 378">
<rect id="Rectangle 244" x="23" y="16" width="1" height="1" fill="#303189"/>
</g>
</g>
<g id="Group 381">
<g id="Group 380">
<rect id="Rectangle 245" x="25" y="16" width="1" height="1" fill="#303189"/>
</g>
</g>
<g id="Group 383">
<g id="Group 382">
<rect id="Rectangle 246" x="26" y="16" width="1" height="1" fill="#303189"/>
</g>
</g>
<g id="Group 385">
<g id="Group 384">
<rect id="Rectangle 247" y="17" width="1" height="1" fill="#303189"/>
</g>
</g>
<g id="Group 387">
<g id="Group 386">
<rect id="Rectangle 248" x="1.00003" y="17" width="1" height="1" fill="#303189"/>
</g>
</g>
<g id="Group 389">
<g id="Group 388">
<rect id="Rectangle 249" x="2.00003" y="17" width="1" height="1" fill="#303189"/>
</g>
</g>
<g id="Group 391">
<g id="Group 390">
<rect id="Rectangle 250" x="3" y="17" width="1" height="1" fill="#303189"/>
</g>
</g>
<g id="Group 393">
<g id="Group 392">
<rect id="Rectangle 251" x="4.00003" y="17" width="1" height="1" fill="#303189"/>
</g>
</g>
<g id="Group 395">
<g id="Group 394">
<rect id="Rectangle 252" x="5.00003" y="17" width="1" height="1" fill="#303189"/>
</g>
</g>
<g id="Group 397">
<g id="Group 396">
<rect id="Rectangle 253" x="9" y="17" width="1" height="1" fill="#303189"/>
</g>
</g>
<g id="Group 399">
<g id="Group 398">
<rect id="Rectangle 254" x="11" y="17" width="1" height="1" fill="#303189"/>
</g>
</g>
<g id="Group 401">
<g id="Group 400">
<rect id="Rectangle 255" x="13" y="17" width="1" height="1" fill="#303189"/>
</g>
</g>
<g id="Group 403">
<g id="Group 402">
<rect id="Rectangle 256" x="14" y="17" width="1" height="1" fill="#303189"/>
</g>
</g>
<g id="Group 405">
<g id="Group 404">
<rect id="Rectangle 257" x="15" y="17" width="1" height="1" fill="#303189"/>
</g>
</g>
<g id="Group 407">
<g id="Group 406">
<rect id="Rectangle 258" x="18" y="17" width="1" height="1" fill="#303189"/>
</g>
</g>
<g id="Group 409">
<g id="Group 408">
<rect id="Rectangle 259" x="19" y="17" width="1" height="1" fill="#303189"/>
</g>
</g>
<g id="Group 411">
<g id="Group 410">
<rect id="Rectangle 260" x="20" y="17" width="1" height="1" fill="#303189"/>
</g>
</g>
<g id="Group 413">
<g id="Group 412">
<rect id="Rectangle 261" x="21" y="17" width="1" height="1" fill="#303189"/>
</g>
</g>
<g id="Group 415">
<g id="Group 414">
<rect id="Rectangle 262" x="22" y="17" width="1" height="1" fill="#303189"/>
</g>
</g>
<g id="Group 417">
<g id="Group 416">
<rect id="Rectangle 263" x="23" y="17" width="1" height="1" fill="#303189"/>
</g>
</g>
<g id="Group 419">
<g id="Group 418">
<rect id="Rectangle 264" x="24" y="17" width="1" height="1" fill="#303189"/>
</g>
</g>
<g id="Group 421">
<g id="Group 420">
<rect id="Rectangle 265" x="26" y="17" width="1" height="1" fill="#303189"/>
</g>
</g>
<g id="Group 423">
<g id="Group 422">
<rect id="Rectangle 266" x="28" y="17" width="1" height="1" fill="#303189"/>
</g>
</g>
<g id="Group 425">
<g id="Group 424">
<rect id="Rectangle 267" y="18" width="1" height="1" fill="#303189"/>
</g>
</g>
<g id="Group 427">
<g id="Group 426">
<rect id="Rectangle 268" x="5.00003" y="18" width="1" height="1" fill="#303189"/>
</g>
</g>
<g id="Group 429">
<g id="Group 428">
<rect id="Rectangle 269" x="6.00003" y="18" width="1" height="1" fill="#303189"/>
</g>
</g>
<g id="Group 431">
<g id="Group 430">
<rect id="Rectangle 270" x="7" y="18" width="1" height="1" fill="#303189"/>
</g>
</g>
<g id="Group 433">
<g id="Group 432">
<rect id="Rectangle 271" x="11" y="18" width="1" height="1" fill="#303189"/>
</g>
</g>
<g id="Group 435">
<g id="Group 434">
<rect id="Rectangle 272" x="13" y="18" width="1" height="1" fill="#303189"/>
</g>
</g>
<g id="Group 437">
<g id="Group 436">
<rect id="Rectangle 273" x="14" y="18" width="1" height="1" fill="#303189"/>
</g>
</g>
<g id="Group 439">
<g id="Group 438">
<rect id="Rectangle 274" x="15" y="18" width="1" height="1" fill="#303189"/>
</g>
</g>
<g id="Group 441">
<g id="Group 440">
<rect id="Rectangle 275" x="16" y="18" width="1" height="1" fill="#303189"/>
</g>
</g>
<g id="Group 443">
<g id="Group 442">
<rect id="Rectangle 276" x="17" y="18" width="1" height="1" fill="#303189"/>
</g>
</g>
<g id="Group 445">
<g id="Group 444">
<rect id="Rectangle 277" x="18" y="18" width="1" height="1" fill="#303189"/>
</g>
</g>
<g id="Group 447">
<g id="Group 446">
<rect id="Rectangle 278" x="23" y="18" width="1" height="1" fill="#303189"/>
</g>
</g>
<g id="Group 449">
<g id="Group 448">
<rect id="Rectangle 279" x="26" y="18" width="1" height="1" fill="#303189"/>
</g>
</g>
<g id="Group 451">
<g id="Group 450">
<rect id="Rectangle 280" y="19" width="1" height="1" fill="#303189"/>
</g>
</g>
<g id="Group 453">
<g id="Group 452">
<rect id="Rectangle 281" x="2.00003" y="19" width="1" height="1" fill="#303189"/>
</g>
</g>
<g id="Group 455">
<g id="Group 454">
<rect id="Rectangle 282" x="3" y="19" width="1" height="1" fill="#303189"/>
</g>
</g>
<g id="Group 457">
<g id="Group 456">
<rect id="Rectangle 283" x="4.00003" y="19" width="1" height="1" fill="#303189"/>
</g>
</g>
<g id="Group 459">
<g id="Group 458">
<rect id="Rectangle 284" x="8" y="19" width="1" height="1" fill="#303189"/>
</g>
</g>
<g id="Group 461">
<g id="Group 460">
<rect id="Rectangle 285" x="13" y="19" width="1" height="1" fill="#303189"/>
</g>
</g>
<g id="Group 463">
<g id="Group 462">
<rect id="Rectangle 286" x="15" y="19" width="1" height="1" fill="#303189"/>
</g>
</g>
<g id="Group 465">
<g id="Group 464">
<rect id="Rectangle 287" x="20" y="19" width="1" height="1" fill="#303189"/>
</g>
</g>
<g id="Group 467">
<g id="Group 466">
<rect id="Rectangle 288" x="21" y="19" width="1" height="1" fill="#303189"/>
</g>
</g>
<g id="Group 469">
<g id="Group 468">
<rect id="Rectangle 289" x="22" y="19" width="1" height="1" fill="#303189"/>
</g>
</g>
<g id="Group 471">
<g id="Group 470">
<rect id="Rectangle 290" x="23" y="19" width="1" height="1" fill="#303189"/>
</g>
</g>
<g id="Group 473">
<g id="Group 472">
<rect id="Rectangle 291" x="24" y="19" width="1" height="1" fill="#303189"/>
</g>
</g>
<g id="Group 475">
<g id="Group 474">
<rect id="Rectangle 292" x="27" y="19" width="1" height="1" fill="#303189"/>
</g>
</g>
<g id="Group 477">
<g id="Group 476">
<rect id="Rectangle 293" y="20" width="1" height="1" fill="#303189"/>
</g>
</g>
<g id="Group 479">
<g id="Group 478">
<rect id="Rectangle 294" x="2.00003" y="20" width="1" height="1" fill="#303189"/>
</g>
</g>
<g id="Group 481">
<g id="Group 480">
<rect id="Rectangle 295" x="3" y="20" width="1" height="1" fill="#303189"/>
</g>
</g>
<g id="Group 483">
<g id="Group 482">
<rect id="Rectangle 296" x="5.00003" y="20" width="1" height="1" fill="#303189"/>
</g>
</g>
<g id="Group 485">
<g id="Group 484">
<rect id="Rectangle 297" x="6.00003" y="20" width="1" height="1" fill="#303189"/>
</g>
</g>
<g id="Group 487">
<g id="Group 486">
<rect id="Rectangle 298" x="8" y="20" width="1" height="1" fill="#303189"/>
</g>
</g>
<g id="Group 489">
<g id="Group 488">
<rect id="Rectangle 299" x="9" y="20" width="1" height="1" fill="#303189"/>
</g>
</g>
<g id="Group 491">
<g id="Group 490">
<rect id="Rectangle 300" x="10" y="20" width="1" height="1" fill="#303189"/>
</g>
</g>
<g id="Group 493">
<g id="Group 492">
<rect id="Rectangle 301" x="11" y="20" width="1" height="1" fill="#303189"/>
</g>
</g>
<g id="Group 495">
<g id="Group 494">
<rect id="Rectangle 302" x="14" y="20" width="1" height="1" fill="#303189"/>
</g>
</g>
<g id="Group 497">
<g id="Group 496">
<rect id="Rectangle 303" x="15" y="20" width="1" height="1" fill="#303189"/>
</g>
</g>
<g id="Group 499">
<g id="Group 498">
<rect id="Rectangle 304" x="17" y="20" width="1" height="1" fill="#303189"/>
</g>
</g>
<g id="Group 501">
<g id="Group 500">
<rect id="Rectangle 305" x="19" y="20" width="1" height="1" fill="#303189"/>
</g>
</g>
<g id="Group 503">
<g id="Group 502">
<rect id="Rectangle 306" x="20" y="20" width="1" height="1" fill="#303189"/>
</g>
</g>
<g id="Group 505">
<g id="Group 504">
<rect id="Rectangle 307" x="21" y="20" width="1" height="1" fill="#303189"/>
</g>
</g>
<g id="Group 507">
<g id="Group 506">
<rect id="Rectangle 308" x="22" y="20" width="1" height="1" fill="#303189"/>
</g>
</g>
<g id="Group 509">
<g id="Group 508">
<rect id="Rectangle 309" x="23" y="20" width="1" height="1" fill="#303189"/>
</g>
</g>
<g id="Group 511">
<g id="Group 510">
<rect id="Rectangle 310" x="24" y="20" width="1" height="1" fill="#303189"/>
</g>
</g>
<g id="Group 513">
<g id="Group 512">
<rect id="Rectangle 311" x="26" y="20" width="1" height="1" fill="#303189"/>
</g>
</g>
<g id="Group 515">
<g id="Group 514">
<rect id="Rectangle 312" x="27" y="20" width="1" height="1" fill="#303189"/>
</g>
</g>
<g id="Group 517">
<g id="Group 516">
<rect id="Rectangle 313" x="28" y="20" width="1" height="1" fill="#303189"/>
</g>
</g>
<g id="Group 519">
<g id="Group 518">
<rect id="Rectangle 314" x="8" y="21" width="1" height="1" fill="#303189"/>
</g>
</g>
<g id="Group 521">
<g id="Group 520">
<rect id="Rectangle 315" x="9" y="21" width="1" height="1" fill="#303189"/>
</g>
</g>
<g id="Group 523">
<g id="Group 522">
<rect id="Rectangle 316" x="12" y="21" width="1" height="1" fill="#303189"/>
</g>
</g>
<g id="Group 525">
<g id="Group 524">
<rect id="Rectangle 317" x="15" y="21" width="1" height="1" fill="#303189"/>
</g>
</g>
<g id="Group 527">
<g id="Group 526">
<rect id="Rectangle 318" x="16" y="21" width="1" height="1" fill="#303189"/>
</g>
</g>
<g id="Group 529">
<g id="Group 528">
<rect id="Rectangle 319" x="17" y="21" width="1" height="1" fill="#303189"/>
</g>
</g>
<g id="Group 531">
<g id="Group 530">
<rect id="Rectangle 320" x="18" y="21" width="1" height="1" fill="#303189"/>
</g>
</g>
<g id="Group 533">
<g id="Group 532">
<rect id="Rectangle 321" x="20" y="21" width="1" height="1" fill="#303189"/>
</g>
</g>
<g id="Group 535">
<g id="Group 534">
<rect id="Rectangle 322" x="24" y="21" width="1" height="1" fill="#303189"/>
</g>
</g>
<g id="Group 537">
<g id="Group 536">
<rect id="Rectangle 323" x="25" y="21" width="1" height="1" fill="#303189"/>
</g>
</g>
<g id="Group 539">
<g id="Group 538">
<rect id="Rectangle 324" x="26" y="21" width="1" height="1" fill="#303189"/>
</g>
</g>
<g id="Group 541">
<g id="Group 540">
<rect id="Rectangle 325" x="27" y="21" width="1" height="1" fill="#303189"/>
</g>
</g>
<g id="Group 543">
<g id="Group 542">
<rect id="Rectangle 326" x="28" y="21" width="1" height="1" fill="#303189"/>
</g>
</g>
<g id="Group 545">
<g id="Group 544">
<rect id="Rectangle 327" x="10" y="22" width="1" height="1" fill="#303189"/>
</g>
</g>
<g id="Group 547">
<g id="Group 546">
<rect id="Rectangle 328" x="12" y="22" width="1" height="1" fill="#303189"/>
</g>
</g>
<g id="Group 549">
<g id="Group 548">
<rect id="Rectangle 329" x="17" y="22" width="1" height="1" fill="#303189"/>
</g>
</g>
<g id="Group 551">
<g id="Group 550">
<rect id="Rectangle 330" x="19" y="22" width="1" height="1" fill="#303189"/>
</g>
</g>
<g id="Group 553">
<g id="Group 552">
<rect id="Rectangle 331" x="20" y="22" width="1" height="1" fill="#303189"/>
</g>
</g>
<g id="Group 555">
<g id="Group 554">
<rect id="Rectangle 332" x="22" y="22" width="1" height="1" fill="#303189"/>
</g>
</g>
<g id="Group 557">
<g id="Group 556">
<rect id="Rectangle 333" x="24" y="22" width="1" height="1" fill="#303189"/>
</g>
</g>
<g id="Group 559">
<g id="Group 558">
<rect id="Rectangle 334" x="25" y="22" width="1" height="1" fill="#303189"/>
</g>
</g>
<g id="Group 561">
<g id="Group 560">
<rect id="Rectangle 335" x="26" y="22" width="1" height="1" fill="#303189"/>
</g>
</g>
<g id="Group 563">
<g id="Group 562">
<rect id="Rectangle 336" x="8" y="23" width="1" height="1" fill="#303189"/>
</g>
</g>
<g id="Group 565">
<g id="Group 564">
<rect id="Rectangle 337" x="10" y="23" width="1" height="1" fill="#303189"/>
</g>
</g>
<g id="Group 567">
<g id="Group 566">
<rect id="Rectangle 338" x="12" y="23" width="1" height="1" fill="#303189"/>
</g>
</g>
<g id="Group 569">
<g id="Group 568">
<rect id="Rectangle 339" x="14" y="23" width="1" height="1" fill="#303189"/>
</g>
</g>
<g id="Group 571">
<g id="Group 570">
<rect id="Rectangle 340" x="16" y="23" width="1" height="1" fill="#303189"/>
</g>
</g>
<g id="Group 573">
<g id="Group 572">
<rect id="Rectangle 341" x="19" y="23" width="1" height="1" fill="#303189"/>
</g>
</g>
<g id="Group 575">
<g id="Group 574">
<rect id="Rectangle 342" x="20" y="23" width="1" height="1" fill="#303189"/>
</g>
</g>
<g id="Group 577">
<g id="Group 576">
<rect id="Rectangle 343" x="24" y="23" width="1" height="1" fill="#303189"/>
</g>
</g>
<g id="Group 579">
<g id="Group 578">
<rect id="Rectangle 344" x="27" y="23" width="1" height="1" fill="#303189"/>
</g>
</g>
<g id="Group 581">
<g id="Group 580">
<rect id="Rectangle 345" x="28" y="23" width="1" height="1" fill="#303189"/>
</g>
</g>
<g id="Group 583">
<g id="Group 582">
<rect id="Rectangle 346" x="8" y="24" width="1" height="1" fill="#303189"/>
</g>
</g>
<g id="Group 585">
<g id="Group 584">
<rect id="Rectangle 347" x="10" y="24" width="1" height="1" fill="#303189"/>
</g>
</g>
<g id="Group 587">
<g id="Group 586">
<rect id="Rectangle 348" x="17" y="24" width="1" height="1" fill="#303189"/>
</g>
</g>
<g id="Group 589">
<g id="Group 588">
<rect id="Rectangle 349" x="20" y="24" width="1" height="1" fill="#303189"/>
</g>
</g>
<g id="Group 591">
<g id="Group 590">
<rect id="Rectangle 350" x="21" y="24" width="1" height="1" fill="#303189"/>
</g>
</g>
<g id="Group 593">
<g id="Group 592">
<rect id="Rectangle 351" x="22" y="24" width="1" height="1" fill="#303189"/>
</g>
</g>
<g id="Group 595">
<g id="Group 594">
<rect id="Rectangle 352" x="23" y="24" width="1" height="1" fill="#303189"/>
</g>
</g>
<g id="Group 597">
<g id="Group 596">
<rect id="Rectangle 353" x="24" y="24" width="1" height="1" fill="#303189"/>
</g>
</g>
<g id="Group 599">
<g id="Group 598">
<rect id="Rectangle 354" x="26" y="24" width="1" height="1" fill="#303189"/>
</g>
</g>
<g id="Group 601">
<g id="Group 600">
<rect id="Rectangle 355" x="28" y="24" width="1" height="1" fill="#303189"/>
</g>
</g>
<g id="Group 603">
<g id="Group 602">
<rect id="Rectangle 356" x="8" y="25" width="1" height="1" fill="#303189"/>
</g>
</g>
<g id="Group 605">
<g id="Group 604">
<rect id="Rectangle 357" x="12" y="25" width="1" height="1" fill="#303189"/>
</g>
</g>
<g id="Group 607">
<g id="Group 606">
<rect id="Rectangle 358" x="13" y="25" width="1" height="1" fill="#303189"/>
</g>
</g>
<g id="Group 609">
<g id="Group 608">
<rect id="Rectangle 359" x="14" y="25" width="1" height="1" fill="#303189"/>
</g>
</g>
<g id="Group 611">
<g id="Group 610">
<rect id="Rectangle 360" x="15" y="25" width="1" height="1" fill="#303189"/>
</g>
</g>
<g id="Group 613">
<g id="Group 612">
<rect id="Rectangle 361" x="17" y="25" width="1" height="1" fill="#303189"/>
</g>
</g>
<g id="Group 615">
<g id="Group 614">
<rect id="Rectangle 362" x="18" y="25" width="1" height="1" fill="#303189"/>
</g>
</g>
<g id="Group 617">
<g id="Group 616">
<rect id="Rectangle 363" x="23" y="25" width="1" height="1" fill="#303189"/>
</g>
</g>
<g id="Group 619">
<g id="Group 618">
<rect id="Rectangle 364" x="25" y="25" width="1" height="1" fill="#303189"/>
</g>
</g>
<g id="Group 621">
<g id="Group 620">
<rect id="Rectangle 365" x="26" y="25" width="1" height="1" fill="#303189"/>
</g>
</g>
<g id="Group 623">
<g id="Group 622">
<rect id="Rectangle 366" x="8" y="26" width="1" height="1" fill="#303189"/>
</g>
</g>
<g id="Group 625">
<g id="Group 624">
<rect id="Rectangle 367" x="9" y="26" width="1" height="1" fill="#303189"/>
</g>
</g>
<g id="Group 627">
<g id="Group 626">
<rect id="Rectangle 368" x="10" y="26" width="1" height="1" fill="#303189"/>
</g>
</g>
<g id="Group 629">
<g id="Group 628">
<rect id="Rectangle 369" x="12" y="26" width="1" height="1" fill="#303189"/>
</g>
</g>
<g id="Group 631">
<g id="Group 630">
<rect id="Rectangle 370" x="14" y="26" width="1" height="1" fill="#303189"/>
</g>
</g>
<g id="Group 633">
<g id="Group 632">
<rect id="Rectangle 371" x="15" y="26" width="1" height="1" fill="#303189"/>
</g>
</g>
<g id="Group 635">
<g id="Group 634">
<rect id="Rectangle 372" x="16" y="26" width="1" height="1" fill="#303189"/>
</g>
</g>
<g id="Group 637">
<g id="Group 636">
<rect id="Rectangle 373" x="21" y="26" width="1" height="1" fill="#303189"/>
</g>
</g>
<g id="Group 639">
<g id="Group 638">
<rect id="Rectangle 374" x="22" y="26" width="1" height="1" fill="#303189"/>
</g>
</g>
<g id="Group 641">
<g id="Group 640">
<rect id="Rectangle 375" x="23" y="26" width="1" height="1" fill="#303189"/>
</g>
</g>
<g id="Group 643">
<g id="Group 642">
<rect id="Rectangle 376" x="24" y="26" width="1" height="1" fill="#303189"/>
</g>
</g>
<g id="Group 645">
<g id="Group 644">
<rect id="Rectangle 377" x="25" y="26" width="1" height="1" fill="#303189"/>
</g>
</g>
<g id="Group 647">
<g id="Group 646">
<rect id="Rectangle 378" x="26" y="26" width="1" height="1" fill="#303189"/>
</g>
</g>
<g id="Group 649">
<g id="Group 648">
<rect id="Rectangle 379" x="27" y="26" width="1" height="1" fill="#303189"/>
</g>
</g>
<g id="Group 651">
<g id="Group 650">
<rect id="Rectangle 380" x="9" y="27" width="1" height="1" fill="#303189"/>
</g>
</g>
<g id="Group 653">
<g id="Group 652">
<rect id="Rectangle 381" x="10" y="27" width="1" height="1" fill="#303189"/>
</g>
</g>
<g id="Group 655">
<g id="Group 654">
<rect id="Rectangle 382" x="11" y="27" width="1" height="1" fill="#303189"/>
</g>
</g>
<g id="Group 657">
<g id="Group 656">
<rect id="Rectangle 383" x="14" y="27" width="1" height="1" fill="#303189"/>
</g>
</g>
<g id="Group 659">
<g id="Group 658">
<rect id="Rectangle 384" x="16" y="27" width="1" height="1" fill="#303189"/>
</g>
</g>
<g id="Group 661">
<g id="Group 660">
<rect id="Rectangle 385" x="19" y="27" width="1" height="1" fill="#303189"/>
</g>
</g>
<g id="Group 663">
<g id="Group 662">
<rect id="Rectangle 386" x="20" y="27" width="1" height="1" fill="#303189"/>
</g>
</g>
<g id="Group 665">
<g id="Group 664">
<rect id="Rectangle 387" x="21" y="27" width="1" height="1" fill="#303189"/>
</g>
</g>
<g id="Group 667">
<g id="Group 666">
<rect id="Rectangle 388" x="23" y="27" width="1" height="1" fill="#303189"/>
</g>
</g>
<g id="Group 669">
<g id="Group 668">
<rect id="Rectangle 389" x="25" y="27" width="1" height="1" fill="#303189"/>
</g>
</g>
<g id="Group 671">
<g id="Group 670">
<rect id="Rectangle 390" x="27" y="27" width="1" height="1" fill="#303189"/>
</g>
</g>
<g id="Group 673">
<g id="Group 672">
<rect id="Rectangle 391" x="8" y="28" width="1" height="1" fill="#303189"/>
</g>
</g>
<g id="Group 675">
<g id="Group 674">
<rect id="Rectangle 392" x="10" y="28" width="1" height="1" fill="#303189"/>
</g>
</g>
<g id="Group 677">
<g id="Group 676">
<rect id="Rectangle 393" x="12" y="28" width="1" height="1" fill="#303189"/>
</g>
</g>
<g id="Group 679">
<g id="Group 678">
<rect id="Rectangle 394" x="17" y="28" width="1" height="1" fill="#303189"/>
</g>
</g>
<g id="Group 681">
<g id="Group 680">
<rect id="Rectangle 395" x="18" y="28" width="1" height="1" fill="#303189"/>
</g>
</g>
<g id="Group 683">
<g id="Group 682">
<rect id="Rectangle 396" x="19" y="28" width="1" height="1" fill="#303189"/>
</g>
</g>
<g id="Group 685">
<g id="Group 684">
<rect id="Rectangle 397" x="23" y="28" width="1" height="1" fill="#303189"/>
</g>
</g>
<g id="Group 687">
<g id="Group 686">
<rect id="Rectangle 398" x="24" y="28" width="1" height="1" fill="#303189"/>
</g>
</g>
<g id="Group 689">
<g id="Group 688">
<rect id="Rectangle 399" x="25" y="28" width="1" height="1" fill="#303189"/>
</g>
</g>
<g id="Group 691">
<g id="Group 690">
<rect id="Rectangle 400" x="26" y="28" width="1" height="1" fill="#303189"/>
</g>
</g>
<g id="Group 694">
<g id="Group 693">
<g id="Group 692">
<path id="Path 11" d="M5.95652 0.00163651H1.05251H0.00164795V1.0525V5.95651V7.00737H1.05251H5.95652H7.00738V5.95651V1.0525V0.00163651H5.95652ZM5.95652 5.95651H1.05251V1.0525H5.95652V5.95651Z" fill="#303189"/>
</g>
</g>
</g>
<g id="Group 697">
<g id="Group 696">
<g id="Group 695">
<path id="Path 12" d="M27.9745 0.00163651H23.0705H22.0197V1.0525V5.95651V7.00737H23.0705H27.9745H29.0254V5.95651V1.0525V0.00163651H27.9745ZM27.9745 5.95651H23.0705V1.0525H27.9745V5.95651Z" fill="#303189"/>
</g>
</g>
</g>
<g id="Group 700">
<g id="Group 699">
<g id="Group 698">
<path id="Path 13" d="M5.95652 22.0196H1.05251H0.00164795V23.0705V27.9745V29.0254H1.05251H5.95652H7.00738V27.9745V23.0705V22.0196H5.95652ZM5.95652 27.9745H1.05251V23.0705H5.95652V27.9745Z" fill="#303189"/>
</g>
</g>
</g>
<g id="Group 702">
<g id="Group 701">
<rect id="Rectangle 404" x="2.00003" y="2" width="3" height="3" fill="#303189"/>
</g>
</g>
<g id="Group 704">
<g id="Group 703">
<rect id="Rectangle 405" x="24" y="2" width="3" height="3" fill="#303189"/>
</g>
</g>
<g id="Group 706">
<g id="Group 705">
<rect id="Rectangle 406" x="2.00003" y="24" width="3" height="3" fill="#303189"/>
</g>
</g>
</g>
</svg>
